<mxfile host="app.diagrams.net" agent="Mozilla/5.0 (Windows NT 10.0; Win64; x64) AppleWebKit/537.36 (KHTML, like Gecko) Chrome/134.0.0.0 Safari/537.36" version="26.1.0">
  <diagram id="C5RBs43oDa-KdzZeNtuy" name="Page-1">
    <mxGraphModel dx="1290" dy="1726" grid="1" gridSize="10" guides="1" tooltips="1" connect="1" arrows="1" fold="1" page="1" pageScale="1" pageWidth="827" pageHeight="1169" math="0" shadow="0">
      <root>
        <mxCell id="WIyWlLk6GJQsqaUBKTNV-0" />
        <mxCell id="WIyWlLk6GJQsqaUBKTNV-1" parent="WIyWlLk6GJQsqaUBKTNV-0" />
        <mxCell id="TQMWpj2GuU2XblvTJpzS-42" value="" style="edgeStyle=orthogonalEdgeStyle;rounded=0;orthogonalLoop=1;jettySize=auto;html=1;" parent="WIyWlLk6GJQsqaUBKTNV-1" source="TQMWpj2GuU2XblvTJpzS-37" target="TQMWpj2GuU2XblvTJpzS-39" edge="1">
          <mxGeometry relative="1" as="geometry" />
        </mxCell>
        <mxCell id="TQMWpj2GuU2XblvTJpzS-155" value="false" style="edgeLabel;html=1;align=center;verticalAlign=middle;resizable=0;points=[];" parent="TQMWpj2GuU2XblvTJpzS-42" vertex="1" connectable="0">
          <mxGeometry x="-0.0935" y="-2" relative="1" as="geometry">
            <mxPoint as="offset" />
          </mxGeometry>
        </mxCell>
        <mxCell id="TQMWpj2GuU2XblvTJpzS-51" value="" style="edgeStyle=orthogonalEdgeStyle;rounded=0;orthogonalLoop=1;jettySize=auto;html=1;" parent="WIyWlLk6GJQsqaUBKTNV-1" source="TQMWpj2GuU2XblvTJpzS-37" target="TQMWpj2GuU2XblvTJpzS-49" edge="1">
          <mxGeometry relative="1" as="geometry" />
        </mxCell>
        <mxCell id="TQMWpj2GuU2XblvTJpzS-150" value="true" style="edgeLabel;html=1;align=center;verticalAlign=middle;resizable=0;points=[];" parent="TQMWpj2GuU2XblvTJpzS-51" vertex="1" connectable="0">
          <mxGeometry x="0.0714" y="-1" relative="1" as="geometry">
            <mxPoint y="1" as="offset" />
          </mxGeometry>
        </mxCell>
        <mxCell id="TQMWpj2GuU2XblvTJpzS-37" value="Apakah input&amp;nbsp;&lt;div&gt;pengguna adalah 1?&lt;/div&gt;" style="rhombus;whiteSpace=wrap;html=1;" parent="WIyWlLk6GJQsqaUBKTNV-1" vertex="1">
          <mxGeometry x="344" y="840" width="140" height="140" as="geometry" />
        </mxCell>
        <mxCell id="TQMWpj2GuU2XblvTJpzS-38" value="" style="edgeStyle=orthogonalEdgeStyle;rounded=0;orthogonalLoop=1;jettySize=auto;html=1;" parent="WIyWlLk6GJQsqaUBKTNV-1" target="TQMWpj2GuU2XblvTJpzS-37" edge="1">
          <mxGeometry relative="1" as="geometry">
            <mxPoint x="960" y="760" as="sourcePoint" />
          </mxGeometry>
        </mxCell>
        <mxCell id="TQMWpj2GuU2XblvTJpzS-43" value="" style="edgeStyle=orthogonalEdgeStyle;rounded=0;orthogonalLoop=1;jettySize=auto;html=1;" parent="WIyWlLk6GJQsqaUBKTNV-1" source="TQMWpj2GuU2XblvTJpzS-39" target="TQMWpj2GuU2XblvTJpzS-40" edge="1">
          <mxGeometry relative="1" as="geometry" />
        </mxCell>
        <mxCell id="TQMWpj2GuU2XblvTJpzS-156" value="false" style="edgeLabel;html=1;align=center;verticalAlign=middle;resizable=0;points=[];" parent="TQMWpj2GuU2XblvTJpzS-43" vertex="1" connectable="0">
          <mxGeometry x="-0.0111" y="-2" relative="1" as="geometry">
            <mxPoint as="offset" />
          </mxGeometry>
        </mxCell>
        <mxCell id="TQMWpj2GuU2XblvTJpzS-68" value="" style="edgeStyle=orthogonalEdgeStyle;rounded=0;orthogonalLoop=1;jettySize=auto;html=1;" parent="WIyWlLk6GJQsqaUBKTNV-1" source="TQMWpj2GuU2XblvTJpzS-39" edge="1">
          <mxGeometry relative="1" as="geometry">
            <mxPoint x="693" y="1040" as="targetPoint" />
          </mxGeometry>
        </mxCell>
        <mxCell id="TQMWpj2GuU2XblvTJpzS-151" value="true" style="edgeLabel;html=1;align=center;verticalAlign=middle;resizable=0;points=[];" parent="TQMWpj2GuU2XblvTJpzS-68" vertex="1" connectable="0">
          <mxGeometry x="0.1667" y="-2" relative="1" as="geometry">
            <mxPoint y="-1" as="offset" />
          </mxGeometry>
        </mxCell>
        <mxCell id="TQMWpj2GuU2XblvTJpzS-39" value="Apakah input&amp;nbsp;&lt;div&gt;pengguna adalah 2?&lt;/div&gt;" style="rhombus;whiteSpace=wrap;html=1;" parent="WIyWlLk6GJQsqaUBKTNV-1" vertex="1">
          <mxGeometry x="623" y="840" width="140" height="140" as="geometry" />
        </mxCell>
        <mxCell id="TQMWpj2GuU2XblvTJpzS-44" value="" style="edgeStyle=orthogonalEdgeStyle;rounded=0;orthogonalLoop=1;jettySize=auto;html=1;" parent="WIyWlLk6GJQsqaUBKTNV-1" source="TQMWpj2GuU2XblvTJpzS-40" target="TQMWpj2GuU2XblvTJpzS-41" edge="1">
          <mxGeometry relative="1" as="geometry" />
        </mxCell>
        <mxCell id="TQMWpj2GuU2XblvTJpzS-157" value="false" style="edgeLabel;html=1;align=center;verticalAlign=middle;resizable=0;points=[];" parent="TQMWpj2GuU2XblvTJpzS-44" vertex="1" connectable="0">
          <mxGeometry x="-0.0388" y="-1" relative="1" as="geometry">
            <mxPoint as="offset" />
          </mxGeometry>
        </mxCell>
        <mxCell id="TQMWpj2GuU2XblvTJpzS-89" value="" style="edgeStyle=orthogonalEdgeStyle;rounded=0;orthogonalLoop=1;jettySize=auto;html=1;" parent="WIyWlLk6GJQsqaUBKTNV-1" source="TQMWpj2GuU2XblvTJpzS-40" target="TQMWpj2GuU2XblvTJpzS-73" edge="1">
          <mxGeometry relative="1" as="geometry" />
        </mxCell>
        <mxCell id="TQMWpj2GuU2XblvTJpzS-152" value="true" style="edgeLabel;html=1;align=center;verticalAlign=middle;resizable=0;points=[];" parent="TQMWpj2GuU2XblvTJpzS-89" vertex="1" connectable="0">
          <mxGeometry x="0.1667" y="2" relative="1" as="geometry">
            <mxPoint y="-1" as="offset" />
          </mxGeometry>
        </mxCell>
        <mxCell id="TQMWpj2GuU2XblvTJpzS-40" value="Apakah input&amp;nbsp;&lt;div&gt;pengguna adalah 3?&lt;/div&gt;" style="rhombus;whiteSpace=wrap;html=1;" parent="WIyWlLk6GJQsqaUBKTNV-1" vertex="1">
          <mxGeometry x="904" y="840" width="140" height="140" as="geometry" />
        </mxCell>
        <mxCell id="TQMWpj2GuU2XblvTJpzS-46" value="" style="edgeStyle=orthogonalEdgeStyle;rounded=0;orthogonalLoop=1;jettySize=auto;html=1;" parent="WIyWlLk6GJQsqaUBKTNV-1" source="TQMWpj2GuU2XblvTJpzS-41" target="TQMWpj2GuU2XblvTJpzS-45" edge="1">
          <mxGeometry relative="1" as="geometry" />
        </mxCell>
        <mxCell id="TQMWpj2GuU2XblvTJpzS-158" value="faslse" style="edgeLabel;html=1;align=center;verticalAlign=middle;resizable=0;points=[];" parent="TQMWpj2GuU2XblvTJpzS-46" vertex="1" connectable="0">
          <mxGeometry x="-0.0664" y="-1" relative="1" as="geometry">
            <mxPoint as="offset" />
          </mxGeometry>
        </mxCell>
        <mxCell id="TQMWpj2GuU2XblvTJpzS-90" value="" style="edgeStyle=orthogonalEdgeStyle;rounded=0;orthogonalLoop=1;jettySize=auto;html=1;" parent="WIyWlLk6GJQsqaUBKTNV-1" source="TQMWpj2GuU2XblvTJpzS-41" edge="1">
          <mxGeometry relative="1" as="geometry">
            <mxPoint x="1254" y="1040" as="targetPoint" />
          </mxGeometry>
        </mxCell>
        <mxCell id="TQMWpj2GuU2XblvTJpzS-153" value="true" style="edgeLabel;html=1;align=center;verticalAlign=middle;resizable=0;points=[];" parent="TQMWpj2GuU2XblvTJpzS-90" vertex="1" connectable="0">
          <mxGeometry x="0.2143" relative="1" as="geometry">
            <mxPoint y="-1" as="offset" />
          </mxGeometry>
        </mxCell>
        <mxCell id="TQMWpj2GuU2XblvTJpzS-41" value="Apakah input&amp;nbsp;&lt;div&gt;pengguna adalah 4?&lt;/div&gt;" style="rhombus;whiteSpace=wrap;html=1;" parent="WIyWlLk6GJQsqaUBKTNV-1" vertex="1">
          <mxGeometry x="1184" y="840" width="140" height="140" as="geometry" />
        </mxCell>
        <mxCell id="TQMWpj2GuU2XblvTJpzS-94" value="" style="edgeStyle=orthogonalEdgeStyle;rounded=0;orthogonalLoop=1;jettySize=auto;html=1;" parent="WIyWlLk6GJQsqaUBKTNV-1" source="TQMWpj2GuU2XblvTJpzS-45" target="TQMWpj2GuU2XblvTJpzS-92" edge="1">
          <mxGeometry relative="1" as="geometry" />
        </mxCell>
        <mxCell id="TQMWpj2GuU2XblvTJpzS-154" value="true" style="edgeLabel;html=1;align=center;verticalAlign=middle;resizable=0;points=[];" parent="TQMWpj2GuU2XblvTJpzS-94" vertex="1" connectable="0">
          <mxGeometry x="0.2143" relative="1" as="geometry">
            <mxPoint y="-1" as="offset" />
          </mxGeometry>
        </mxCell>
        <mxCell id="TQMWpj2GuU2XblvTJpzS-100" value="" style="edgeStyle=orthogonalEdgeStyle;rounded=0;orthogonalLoop=1;jettySize=auto;html=1;" parent="WIyWlLk6GJQsqaUBKTNV-1" source="TQMWpj2GuU2XblvTJpzS-45" target="TQMWpj2GuU2XblvTJpzS-98" edge="1">
          <mxGeometry relative="1" as="geometry" />
        </mxCell>
        <mxCell id="TQMWpj2GuU2XblvTJpzS-159" value="false" style="edgeLabel;html=1;align=center;verticalAlign=middle;resizable=0;points=[];" parent="TQMWpj2GuU2XblvTJpzS-100" vertex="1" connectable="0">
          <mxGeometry x="-0.1743" y="-2" relative="1" as="geometry">
            <mxPoint as="offset" />
          </mxGeometry>
        </mxCell>
        <mxCell id="TQMWpj2GuU2XblvTJpzS-45" value="Apakah input&amp;nbsp;&lt;div&gt;pengguna adalah 5?&lt;/div&gt;" style="rhombus;whiteSpace=wrap;html=1;" parent="WIyWlLk6GJQsqaUBKTNV-1" vertex="1">
          <mxGeometry x="1410" y="840" width="140" height="140" as="geometry" />
        </mxCell>
        <mxCell id="TQMWpj2GuU2XblvTJpzS-57" value="" style="group" parent="WIyWlLk6GJQsqaUBKTNV-1" vertex="1" connectable="0">
          <mxGeometry x="280" y="1040" width="268" height="320" as="geometry" />
        </mxCell>
        <mxCell id="TQMWpj2GuU2XblvTJpzS-47" value="Menyimpan Inputan Pengguna ke dalam Array Koleksi" style="rounded=0;whiteSpace=wrap;html=1;" parent="TQMWpj2GuU2XblvTJpzS-57" vertex="1">
          <mxGeometry x="67.5" y="120" width="133" height="80" as="geometry" />
        </mxCell>
        <mxCell id="TQMWpj2GuU2XblvTJpzS-48" value="" style="group" parent="TQMWpj2GuU2XblvTJpzS-57" vertex="1" connectable="0">
          <mxGeometry width="224" height="80" as="geometry" />
        </mxCell>
        <mxCell id="TQMWpj2GuU2XblvTJpzS-49" value="Pengguna menginput&amp;nbsp;&lt;div&gt;Judul Karya, Tahun Dibuat,&amp;nbsp;&lt;/div&gt;&lt;div&gt;dan Nama Seniman&lt;/div&gt;" style="shape=parallelogram;perimeter=parallelogramPerimeter;whiteSpace=wrap;html=1;fixedSize=1;" parent="TQMWpj2GuU2XblvTJpzS-48" vertex="1">
          <mxGeometry x="44" width="180" height="80" as="geometry" />
        </mxCell>
        <mxCell id="TQMWpj2GuU2XblvTJpzS-50" value="" style="endArrow=classic;html=1;rounded=0;entryX=0.113;entryY=0.002;entryDx=0;entryDy=0;entryPerimeter=0;" parent="TQMWpj2GuU2XblvTJpzS-48" target="TQMWpj2GuU2XblvTJpzS-49" edge="1">
          <mxGeometry width="50" height="50" relative="1" as="geometry">
            <mxPoint as="sourcePoint" />
            <mxPoint x="160" y="-10" as="targetPoint" />
          </mxGeometry>
        </mxCell>
        <mxCell id="TQMWpj2GuU2XblvTJpzS-52" value="" style="edgeStyle=orthogonalEdgeStyle;rounded=0;orthogonalLoop=1;jettySize=auto;html=1;" parent="TQMWpj2GuU2XblvTJpzS-57" source="TQMWpj2GuU2XblvTJpzS-49" target="TQMWpj2GuU2XblvTJpzS-47" edge="1">
          <mxGeometry relative="1" as="geometry" />
        </mxCell>
        <mxCell id="TQMWpj2GuU2XblvTJpzS-58" value="" style="group" parent="WIyWlLk6GJQsqaUBKTNV-1" vertex="1" connectable="0">
          <mxGeometry x="559" y="1040" width="268" height="320" as="geometry" />
        </mxCell>
        <mxCell id="TQMWpj2GuU2XblvTJpzS-65" value="" style="group" parent="TQMWpj2GuU2XblvTJpzS-58" vertex="1" connectable="0">
          <mxGeometry x="44" width="224" height="80" as="geometry" />
        </mxCell>
        <mxCell id="TQMWpj2GuU2XblvTJpzS-66" value="Print Tabel&amp;nbsp;&lt;div&gt;Koleksi berdasarkan array Koleksi&lt;/div&gt;" style="shape=parallelogram;perimeter=parallelogramPerimeter;whiteSpace=wrap;html=1;fixedSize=1;" parent="TQMWpj2GuU2XblvTJpzS-65" vertex="1">
          <mxGeometry width="180" height="80" as="geometry" />
        </mxCell>
        <mxCell id="TQMWpj2GuU2XblvTJpzS-67" value="" style="endArrow=classic;html=1;rounded=0;exitX=0.9;exitY=1;exitDx=0;exitDy=0;exitPerimeter=0;" parent="TQMWpj2GuU2XblvTJpzS-65" source="TQMWpj2GuU2XblvTJpzS-66" edge="1">
          <mxGeometry width="50" height="50" relative="1" as="geometry">
            <mxPoint x="66" y="160" as="sourcePoint" />
            <mxPoint x="206" y="80" as="targetPoint" />
          </mxGeometry>
        </mxCell>
        <mxCell id="TQMWpj2GuU2XblvTJpzS-69" value="" style="group" parent="WIyWlLk6GJQsqaUBKTNV-1" vertex="1" connectable="0">
          <mxGeometry x="840" y="1040" width="268" height="320" as="geometry" />
        </mxCell>
        <mxCell id="TQMWpj2GuU2XblvTJpzS-70" value="" style="edgeStyle=orthogonalEdgeStyle;rounded=0;orthogonalLoop=1;jettySize=auto;html=1;" parent="TQMWpj2GuU2XblvTJpzS-69" edge="1">
          <mxGeometry relative="1" as="geometry">
            <mxPoint x="134" y="200" as="sourcePoint" />
            <mxPoint x="134" y="240" as="targetPoint" />
          </mxGeometry>
        </mxCell>
        <mxCell id="TQMWpj2GuU2XblvTJpzS-72" value="" style="group" parent="TQMWpj2GuU2XblvTJpzS-69" vertex="1" connectable="0">
          <mxGeometry width="224" height="80" as="geometry" />
        </mxCell>
        <mxCell id="TQMWpj2GuU2XblvTJpzS-73" value="Pengguna menginput&amp;nbsp;&lt;div&gt;Nomor urut berapa&amp;nbsp;&lt;/div&gt;&lt;div&gt;Koleksi yang ingin&lt;/div&gt;&lt;div&gt;&amp;nbsp;diperbarui&lt;/div&gt;" style="shape=parallelogram;perimeter=parallelogramPerimeter;whiteSpace=wrap;html=1;fixedSize=1;" parent="TQMWpj2GuU2XblvTJpzS-72" vertex="1">
          <mxGeometry x="44" width="180" height="80" as="geometry" />
        </mxCell>
        <mxCell id="TQMWpj2GuU2XblvTJpzS-74" value="" style="endArrow=classic;html=1;rounded=0;entryX=0.113;entryY=0.002;entryDx=0;entryDy=0;entryPerimeter=0;" parent="TQMWpj2GuU2XblvTJpzS-72" target="TQMWpj2GuU2XblvTJpzS-73" edge="1">
          <mxGeometry width="50" height="50" relative="1" as="geometry">
            <mxPoint as="sourcePoint" />
            <mxPoint x="160" y="-10" as="targetPoint" />
          </mxGeometry>
        </mxCell>
        <mxCell id="TQMWpj2GuU2XblvTJpzS-75" value="" style="edgeStyle=orthogonalEdgeStyle;rounded=0;orthogonalLoop=1;jettySize=auto;html=1;" parent="TQMWpj2GuU2XblvTJpzS-69" source="TQMWpj2GuU2XblvTJpzS-73" edge="1">
          <mxGeometry relative="1" as="geometry">
            <mxPoint x="134" y="120" as="targetPoint" />
          </mxGeometry>
        </mxCell>
        <mxCell id="CPGWKNepS4F0Ph8pHmQM-0" value="" style="group" vertex="1" connectable="0" parent="TQMWpj2GuU2XblvTJpzS-69">
          <mxGeometry y="120" width="224" height="80" as="geometry" />
        </mxCell>
        <mxCell id="CPGWKNepS4F0Ph8pHmQM-1" value="Pengguna Menginput Judul Karya Baru, Tahun Dibuat,&amp;nbsp;&lt;div&gt;Serta Nama Seniman&amp;nbsp;&lt;/div&gt;&lt;div&gt;yang Baru&lt;/div&gt;" style="shape=parallelogram;perimeter=parallelogramPerimeter;whiteSpace=wrap;html=1;fixedSize=1;" vertex="1" parent="CPGWKNepS4F0Ph8pHmQM-0">
          <mxGeometry x="44" width="180" height="80" as="geometry" />
        </mxCell>
        <mxCell id="CPGWKNepS4F0Ph8pHmQM-2" value="" style="endArrow=classic;html=1;rounded=0;entryX=0.113;entryY=0.002;entryDx=0;entryDy=0;entryPerimeter=0;" edge="1" parent="CPGWKNepS4F0Ph8pHmQM-0" target="CPGWKNepS4F0Ph8pHmQM-1">
          <mxGeometry width="50" height="50" relative="1" as="geometry">
            <mxPoint as="sourcePoint" />
            <mxPoint x="160" y="-10" as="targetPoint" />
          </mxGeometry>
        </mxCell>
        <mxCell id="CPGWKNepS4F0Ph8pHmQM-3" value="Mengganti data dalam array berdasarkan indeks ke data hasil inputan pengguna" style="rounded=0;whiteSpace=wrap;html=1;" vertex="1" parent="TQMWpj2GuU2XblvTJpzS-69">
          <mxGeometry x="67.5" y="240" width="133" height="80" as="geometry" />
        </mxCell>
        <mxCell id="TQMWpj2GuU2XblvTJpzS-91" value="" style="group" parent="WIyWlLk6GJQsqaUBKTNV-1" vertex="1" connectable="0">
          <mxGeometry x="1400" y="1040" width="224" height="80" as="geometry" />
        </mxCell>
        <mxCell id="TQMWpj2GuU2XblvTJpzS-92" value="Print &quot;Terima kasih telah berkunjung&quot;" style="shape=parallelogram;perimeter=parallelogramPerimeter;whiteSpace=wrap;html=1;fixedSize=1;" parent="TQMWpj2GuU2XblvTJpzS-91" vertex="1">
          <mxGeometry x="-10" width="180" height="80" as="geometry" />
        </mxCell>
        <mxCell id="TQMWpj2GuU2XblvTJpzS-93" value="" style="endArrow=classic;html=1;rounded=0;exitX=0.9;exitY=1;exitDx=0;exitDy=0;exitPerimeter=0;" parent="TQMWpj2GuU2XblvTJpzS-91" source="TQMWpj2GuU2XblvTJpzS-92" edge="1">
          <mxGeometry width="50" height="50" relative="1" as="geometry">
            <mxPoint x="66" y="160" as="sourcePoint" />
            <mxPoint x="206" y="80" as="targetPoint" />
          </mxGeometry>
        </mxCell>
        <mxCell id="TQMWpj2GuU2XblvTJpzS-96" value="" style="endArrow=none;html=1;rounded=0;" parent="WIyWlLk6GJQsqaUBKTNV-1" edge="1">
          <mxGeometry width="50" height="50" relative="1" as="geometry">
            <mxPoint x="960" y="760" as="sourcePoint" />
            <mxPoint x="960" y="720" as="targetPoint" />
          </mxGeometry>
        </mxCell>
        <mxCell id="TQMWpj2GuU2XblvTJpzS-97" value="" style="group" parent="WIyWlLk6GJQsqaUBKTNV-1" vertex="1" connectable="0">
          <mxGeometry x="1650" y="870" width="224" height="80" as="geometry" />
        </mxCell>
        <mxCell id="TQMWpj2GuU2XblvTJpzS-98" value="Print &quot;Pilihan tidak&amp;nbsp;&lt;div&gt;ada di menu&quot;&lt;/div&gt;" style="shape=parallelogram;perimeter=parallelogramPerimeter;whiteSpace=wrap;html=1;fixedSize=1;" parent="TQMWpj2GuU2XblvTJpzS-97" vertex="1">
          <mxGeometry x="-10" width="180" height="80" as="geometry" />
        </mxCell>
        <mxCell id="TQMWpj2GuU2XblvTJpzS-99" value="" style="endArrow=classic;html=1;rounded=0;exitX=0.9;exitY=1;exitDx=0;exitDy=0;exitPerimeter=0;" parent="TQMWpj2GuU2XblvTJpzS-97" source="TQMWpj2GuU2XblvTJpzS-98" edge="1">
          <mxGeometry width="50" height="50" relative="1" as="geometry">
            <mxPoint x="66" y="160" as="sourcePoint" />
            <mxPoint x="206" y="80" as="targetPoint" />
          </mxGeometry>
        </mxCell>
        <mxCell id="TQMWpj2GuU2XblvTJpzS-101" value="" style="endArrow=none;html=1;rounded=0;" parent="WIyWlLk6GJQsqaUBKTNV-1" edge="1">
          <mxGeometry width="50" height="50" relative="1" as="geometry">
            <mxPoint x="240" y="1440" as="sourcePoint" />
            <mxPoint x="1260" y="1440" as="targetPoint" />
          </mxGeometry>
        </mxCell>
        <mxCell id="TQMWpj2GuU2XblvTJpzS-102" value="" style="endArrow=none;html=1;rounded=0;exitX=0.5;exitY=1;exitDx=0;exitDy=0;" parent="WIyWlLk6GJQsqaUBKTNV-1" source="TQMWpj2GuU2XblvTJpzS-81" edge="1">
          <mxGeometry width="50" height="50" relative="1" as="geometry">
            <mxPoint x="1254" y="1360" as="sourcePoint" />
            <mxPoint x="1254" y="1440" as="targetPoint" />
          </mxGeometry>
        </mxCell>
        <mxCell id="TQMWpj2GuU2XblvTJpzS-103" value="" style="endArrow=none;html=1;rounded=0;exitX=0.5;exitY=1;exitDx=0;exitDy=0;" parent="WIyWlLk6GJQsqaUBKTNV-1" edge="1">
          <mxGeometry width="50" height="50" relative="1" as="geometry">
            <mxPoint x="974" y="1360" as="sourcePoint" />
            <mxPoint x="974" y="1440" as="targetPoint" />
          </mxGeometry>
        </mxCell>
        <mxCell id="TQMWpj2GuU2XblvTJpzS-104" value="" style="endArrow=none;html=1;rounded=0;exitX=0.5;exitY=1;exitDx=0;exitDy=0;" parent="WIyWlLk6GJQsqaUBKTNV-1" source="TQMWpj2GuU2XblvTJpzS-66" edge="1">
          <mxGeometry width="50" height="50" relative="1" as="geometry">
            <mxPoint x="560" y="1550" as="sourcePoint" />
            <mxPoint x="693" y="1440" as="targetPoint" />
          </mxGeometry>
        </mxCell>
        <mxCell id="TQMWpj2GuU2XblvTJpzS-105" value="" style="endArrow=none;html=1;rounded=0;exitX=0.5;exitY=1;exitDx=0;exitDy=0;" parent="WIyWlLk6GJQsqaUBKTNV-1" source="TQMWpj2GuU2XblvTJpzS-47" edge="1">
          <mxGeometry width="50" height="50" relative="1" as="geometry">
            <mxPoint x="414" y="1360" as="sourcePoint" />
            <mxPoint x="414" y="1440" as="targetPoint" />
          </mxGeometry>
        </mxCell>
        <mxCell id="TQMWpj2GuU2XblvTJpzS-106" value="" style="endArrow=none;html=1;rounded=0;" parent="WIyWlLk6GJQsqaUBKTNV-1" edge="1">
          <mxGeometry width="50" height="50" relative="1" as="geometry">
            <mxPoint x="240" y="1440" as="sourcePoint" />
            <mxPoint x="240" y="560" as="targetPoint" />
          </mxGeometry>
        </mxCell>
        <mxCell id="TQMWpj2GuU2XblvTJpzS-107" value="" style="endArrow=classic;html=1;rounded=0;" parent="WIyWlLk6GJQsqaUBKTNV-1" edge="1">
          <mxGeometry width="50" height="50" relative="1" as="geometry">
            <mxPoint x="240" y="560" as="sourcePoint" />
            <mxPoint x="880" y="560" as="targetPoint" />
          </mxGeometry>
        </mxCell>
        <mxCell id="TQMWpj2GuU2XblvTJpzS-108" value="loop" style="edgeLabel;html=1;align=center;verticalAlign=middle;resizable=0;points=[];" parent="TQMWpj2GuU2XblvTJpzS-107" vertex="1" connectable="0">
          <mxGeometry x="0.7544" y="-1" relative="1" as="geometry">
            <mxPoint as="offset" />
          </mxGeometry>
        </mxCell>
        <mxCell id="TQMWpj2GuU2XblvTJpzS-109" value="" style="endArrow=none;html=1;rounded=0;exitX=0.5;exitY=0;exitDx=0;exitDy=0;" parent="WIyWlLk6GJQsqaUBKTNV-1" source="TQMWpj2GuU2XblvTJpzS-98" edge="1">
          <mxGeometry width="50" height="50" relative="1" as="geometry">
            <mxPoint x="1350" y="690" as="sourcePoint" />
            <mxPoint x="1730" y="560" as="targetPoint" />
          </mxGeometry>
        </mxCell>
        <mxCell id="TQMWpj2GuU2XblvTJpzS-110" value="" style="endArrow=classic;html=1;rounded=0;" parent="WIyWlLk6GJQsqaUBKTNV-1" edge="1">
          <mxGeometry width="50" height="50" relative="1" as="geometry">
            <mxPoint x="1730" y="560" as="sourcePoint" />
            <mxPoint x="1040" y="560" as="targetPoint" />
          </mxGeometry>
        </mxCell>
        <mxCell id="TQMWpj2GuU2XblvTJpzS-111" value="loop" style="edgeLabel;html=1;align=center;verticalAlign=middle;resizable=0;points=[];" parent="TQMWpj2GuU2XblvTJpzS-110" vertex="1" connectable="0">
          <mxGeometry x="0.8186" y="2" relative="1" as="geometry">
            <mxPoint as="offset" />
          </mxGeometry>
        </mxCell>
        <mxCell id="TQMWpj2GuU2XblvTJpzS-163" value="" style="edgeStyle=orthogonalEdgeStyle;rounded=0;orthogonalLoop=1;jettySize=auto;html=1;" parent="WIyWlLk6GJQsqaUBKTNV-1" source="TQMWpj2GuU2XblvTJpzS-0" target="TQMWpj2GuU2XblvTJpzS-160" edge="1">
          <mxGeometry relative="1" as="geometry" />
        </mxCell>
        <mxCell id="TQMWpj2GuU2XblvTJpzS-0" value="START" style="ellipse;whiteSpace=wrap;html=1;" parent="WIyWlLk6GJQsqaUBKTNV-1" vertex="1">
          <mxGeometry x="901" y="-280" width="120" height="80" as="geometry" />
        </mxCell>
        <mxCell id="TQMWpj2GuU2XblvTJpzS-11" value="" style="edgeStyle=orthogonalEdgeStyle;rounded=0;orthogonalLoop=1;jettySize=auto;html=1;" parent="WIyWlLk6GJQsqaUBKTNV-1" source="TQMWpj2GuU2XblvTJpzS-1" target="TQMWpj2GuU2XblvTJpzS-10" edge="1">
          <mxGeometry relative="1" as="geometry" />
        </mxCell>
        <mxCell id="TQMWpj2GuU2XblvTJpzS-13" value="" style="group" parent="WIyWlLk6GJQsqaUBKTNV-1" vertex="1" connectable="0">
          <mxGeometry x="827" y="200" width="224" height="80" as="geometry" />
        </mxCell>
        <mxCell id="TQMWpj2GuU2XblvTJpzS-10" value="Pengguna menginput&amp;nbsp;&lt;div&gt;nama dan password&lt;/div&gt;" style="shape=parallelogram;perimeter=parallelogramPerimeter;whiteSpace=wrap;html=1;fixedSize=1;" parent="TQMWpj2GuU2XblvTJpzS-13" vertex="1">
          <mxGeometry x="44" width="180" height="80" as="geometry" />
        </mxCell>
        <mxCell id="TQMWpj2GuU2XblvTJpzS-12" value="" style="endArrow=classic;html=1;rounded=0;entryX=0.113;entryY=0.002;entryDx=0;entryDy=0;entryPerimeter=0;" parent="TQMWpj2GuU2XblvTJpzS-13" target="TQMWpj2GuU2XblvTJpzS-10" edge="1">
          <mxGeometry width="50" height="50" relative="1" as="geometry">
            <mxPoint as="sourcePoint" />
            <mxPoint x="160" y="-10" as="targetPoint" />
          </mxGeometry>
        </mxCell>
        <mxCell id="TQMWpj2GuU2XblvTJpzS-14" value="" style="group" parent="WIyWlLk6GJQsqaUBKTNV-1" vertex="1" connectable="0">
          <mxGeometry x="871" y="80" width="206" height="80" as="geometry" />
        </mxCell>
        <mxCell id="TQMWpj2GuU2XblvTJpzS-1" value="Print &quot;Masukkan Nama&quot;&amp;nbsp;&lt;div&gt;dan &quot;Masukkan&amp;nbsp;&lt;/div&gt;&lt;div&gt;Password&quot;&lt;/div&gt;" style="shape=parallelogram;perimeter=parallelogramPerimeter;whiteSpace=wrap;html=1;fixedSize=1;" parent="TQMWpj2GuU2XblvTJpzS-14" vertex="1">
          <mxGeometry width="180" height="80" as="geometry" />
        </mxCell>
        <mxCell id="TQMWpj2GuU2XblvTJpzS-7" value="" style="endArrow=classic;html=1;rounded=0;exitX=0.9;exitY=1;exitDx=0;exitDy=0;exitPerimeter=0;" parent="TQMWpj2GuU2XblvTJpzS-14" source="TQMWpj2GuU2XblvTJpzS-1" edge="1">
          <mxGeometry width="50" height="50" relative="1" as="geometry">
            <mxPoint x="66" y="160" as="sourcePoint" />
            <mxPoint x="206" y="80" as="targetPoint" />
          </mxGeometry>
        </mxCell>
        <mxCell id="TQMWpj2GuU2XblvTJpzS-19" value="" style="edgeStyle=orthogonalEdgeStyle;rounded=0;orthogonalLoop=1;jettySize=auto;html=1;" parent="WIyWlLk6GJQsqaUBKTNV-1" source="TQMWpj2GuU2XblvTJpzS-15" target="TQMWpj2GuU2XblvTJpzS-18" edge="1">
          <mxGeometry relative="1" as="geometry">
            <Array as="points">
              <mxPoint x="1087" y="390" />
              <mxPoint x="1087" y="390" />
            </Array>
          </mxGeometry>
        </mxCell>
        <mxCell id="TQMWpj2GuU2XblvTJpzS-23" value="false" style="edgeLabel;html=1;align=center;verticalAlign=middle;resizable=0;points=[];" parent="TQMWpj2GuU2XblvTJpzS-19" vertex="1" connectable="0">
          <mxGeometry x="-0.0897" y="-1" relative="1" as="geometry">
            <mxPoint as="offset" />
          </mxGeometry>
        </mxCell>
        <mxCell id="TQMWpj2GuU2XblvTJpzS-32" value="" style="edgeStyle=orthogonalEdgeStyle;rounded=0;orthogonalLoop=1;jettySize=auto;html=1;" parent="WIyWlLk6GJQsqaUBKTNV-1" source="TQMWpj2GuU2XblvTJpzS-15" target="TQMWpj2GuU2XblvTJpzS-29" edge="1">
          <mxGeometry relative="1" as="geometry" />
        </mxCell>
        <mxCell id="TQMWpj2GuU2XblvTJpzS-149" value="true" style="edgeLabel;html=1;align=center;verticalAlign=middle;resizable=0;points=[];" parent="TQMWpj2GuU2XblvTJpzS-32" vertex="1" connectable="0">
          <mxGeometry x="-0.3095" relative="1" as="geometry">
            <mxPoint y="-1" as="offset" />
          </mxGeometry>
        </mxCell>
        <mxCell id="TQMWpj2GuU2XblvTJpzS-15" value="Apakah input&amp;nbsp;&lt;div&gt;nama dan password sesuai?&lt;/div&gt;" style="rhombus;whiteSpace=wrap;html=1;" parent="WIyWlLk6GJQsqaUBKTNV-1" vertex="1">
          <mxGeometry x="891" y="320" width="140" height="140" as="geometry" />
        </mxCell>
        <mxCell id="TQMWpj2GuU2XblvTJpzS-16" value="" style="edgeStyle=orthogonalEdgeStyle;rounded=0;orthogonalLoop=1;jettySize=auto;html=1;" parent="WIyWlLk6GJQsqaUBKTNV-1" source="TQMWpj2GuU2XblvTJpzS-10" target="TQMWpj2GuU2XblvTJpzS-15" edge="1">
          <mxGeometry relative="1" as="geometry" />
        </mxCell>
        <mxCell id="TQMWpj2GuU2XblvTJpzS-18" value="Apakah salah&amp;nbsp;&lt;div&gt;input &amp;lt; 3&lt;/div&gt;" style="rhombus;whiteSpace=wrap;html=1;" parent="WIyWlLk6GJQsqaUBKTNV-1" vertex="1">
          <mxGeometry x="1147" y="320" width="140" height="140" as="geometry" />
        </mxCell>
        <mxCell id="TQMWpj2GuU2XblvTJpzS-21" value="" style="endArrow=none;html=1;rounded=0;exitX=0.5;exitY=0;exitDx=0;exitDy=0;" parent="WIyWlLk6GJQsqaUBKTNV-1" source="TQMWpj2GuU2XblvTJpzS-18" edge="1">
          <mxGeometry width="50" height="50" relative="1" as="geometry">
            <mxPoint x="1157" y="260" as="sourcePoint" />
            <mxPoint x="1217" y="120" as="targetPoint" />
          </mxGeometry>
        </mxCell>
        <mxCell id="TQMWpj2GuU2XblvTJpzS-24" value="true" style="edgeLabel;html=1;align=center;verticalAlign=middle;resizable=0;points=[];" parent="TQMWpj2GuU2XblvTJpzS-21" vertex="1" connectable="0">
          <mxGeometry x="-0.726" y="-1" relative="1" as="geometry">
            <mxPoint as="offset" />
          </mxGeometry>
        </mxCell>
        <mxCell id="TQMWpj2GuU2XblvTJpzS-22" value="" style="endArrow=classic;html=1;rounded=0;entryX=1;entryY=0.5;entryDx=0;entryDy=0;" parent="WIyWlLk6GJQsqaUBKTNV-1" target="TQMWpj2GuU2XblvTJpzS-1" edge="1">
          <mxGeometry width="50" height="50" relative="1" as="geometry">
            <mxPoint x="1217" y="120" as="sourcePoint" />
            <mxPoint x="1207" y="210" as="targetPoint" />
          </mxGeometry>
        </mxCell>
        <mxCell id="TQMWpj2GuU2XblvTJpzS-143" value="loop" style="edgeLabel;html=1;align=center;verticalAlign=middle;resizable=0;points=[];" parent="TQMWpj2GuU2XblvTJpzS-22" vertex="1" connectable="0">
          <mxGeometry x="0.2987" relative="1" as="geometry">
            <mxPoint as="offset" />
          </mxGeometry>
        </mxCell>
        <mxCell id="TQMWpj2GuU2XblvTJpzS-28" value="" style="group" parent="WIyWlLk6GJQsqaUBKTNV-1" vertex="1" connectable="0">
          <mxGeometry x="871" y="520" width="224" height="80" as="geometry" />
        </mxCell>
        <mxCell id="TQMWpj2GuU2XblvTJpzS-29" value="Print Tampilan Menu" style="shape=parallelogram;perimeter=parallelogramPerimeter;whiteSpace=wrap;html=1;fixedSize=1;" parent="TQMWpj2GuU2XblvTJpzS-28" vertex="1">
          <mxGeometry width="180" height="80" as="geometry" />
        </mxCell>
        <mxCell id="TQMWpj2GuU2XblvTJpzS-30" value="" style="endArrow=classic;html=1;rounded=0;exitX=0.9;exitY=1;exitDx=0;exitDy=0;exitPerimeter=0;" parent="TQMWpj2GuU2XblvTJpzS-28" source="TQMWpj2GuU2XblvTJpzS-29" edge="1">
          <mxGeometry width="50" height="50" relative="1" as="geometry">
            <mxPoint x="66" y="160" as="sourcePoint" />
            <mxPoint x="206" y="80" as="targetPoint" />
          </mxGeometry>
        </mxCell>
        <mxCell id="TQMWpj2GuU2XblvTJpzS-33" value="" style="group" parent="WIyWlLk6GJQsqaUBKTNV-1" vertex="1" connectable="0">
          <mxGeometry x="827" y="640" width="224" height="80" as="geometry" />
        </mxCell>
        <mxCell id="TQMWpj2GuU2XblvTJpzS-34" value="Pengguna menginput&amp;nbsp;&lt;div&gt;pilihan berdasarkan angka&lt;/div&gt;" style="shape=parallelogram;perimeter=parallelogramPerimeter;whiteSpace=wrap;html=1;fixedSize=1;" parent="TQMWpj2GuU2XblvTJpzS-33" vertex="1">
          <mxGeometry x="44" width="180" height="80" as="geometry" />
        </mxCell>
        <mxCell id="TQMWpj2GuU2XblvTJpzS-35" value="" style="endArrow=classic;html=1;rounded=0;entryX=0.113;entryY=0.002;entryDx=0;entryDy=0;entryPerimeter=0;" parent="TQMWpj2GuU2XblvTJpzS-33" target="TQMWpj2GuU2XblvTJpzS-34" edge="1">
          <mxGeometry width="50" height="50" relative="1" as="geometry">
            <mxPoint as="sourcePoint" />
            <mxPoint x="160" y="-10" as="targetPoint" />
          </mxGeometry>
        </mxCell>
        <mxCell id="TQMWpj2GuU2XblvTJpzS-36" value="" style="edgeStyle=orthogonalEdgeStyle;rounded=0;orthogonalLoop=1;jettySize=auto;html=1;" parent="WIyWlLk6GJQsqaUBKTNV-1" source="TQMWpj2GuU2XblvTJpzS-29" target="TQMWpj2GuU2XblvTJpzS-34" edge="1">
          <mxGeometry relative="1" as="geometry" />
        </mxCell>
        <mxCell id="TQMWpj2GuU2XblvTJpzS-139" value="" style="endArrow=none;html=1;rounded=0;exitX=0.5;exitY=1;exitDx=0;exitDy=0;" parent="WIyWlLk6GJQsqaUBKTNV-1" source="TQMWpj2GuU2XblvTJpzS-92" edge="1">
          <mxGeometry width="50" height="50" relative="1" as="geometry">
            <mxPoint x="1310" y="1320" as="sourcePoint" />
            <mxPoint x="1480" y="1520" as="targetPoint" />
          </mxGeometry>
        </mxCell>
        <mxCell id="TQMWpj2GuU2XblvTJpzS-140" value="" style="endArrow=none;html=1;rounded=0;" parent="WIyWlLk6GJQsqaUBKTNV-1" edge="1">
          <mxGeometry width="50" height="50" relative="1" as="geometry">
            <mxPoint x="1480" y="1520" as="sourcePoint" />
            <mxPoint x="970" y="1520" as="targetPoint" />
          </mxGeometry>
        </mxCell>
        <mxCell id="TQMWpj2GuU2XblvTJpzS-142" value="" style="group" parent="WIyWlLk6GJQsqaUBKTNV-1" vertex="1" connectable="0">
          <mxGeometry x="910" y="1520" width="120" height="120" as="geometry" />
        </mxCell>
        <mxCell id="TQMWpj2GuU2XblvTJpzS-138" value="END" style="ellipse;whiteSpace=wrap;html=1;" parent="TQMWpj2GuU2XblvTJpzS-142" vertex="1">
          <mxGeometry y="40" width="120" height="80" as="geometry" />
        </mxCell>
        <mxCell id="TQMWpj2GuU2XblvTJpzS-141" value="" style="endArrow=classic;html=1;rounded=0;entryX=0.5;entryY=0;entryDx=0;entryDy=0;" parent="TQMWpj2GuU2XblvTJpzS-142" target="TQMWpj2GuU2XblvTJpzS-138" edge="1">
          <mxGeometry width="50" height="50" relative="1" as="geometry">
            <mxPoint x="60" as="sourcePoint" />
            <mxPoint x="446" y="-50" as="targetPoint" />
          </mxGeometry>
        </mxCell>
        <mxCell id="TQMWpj2GuU2XblvTJpzS-146" value="" style="endArrow=none;html=1;rounded=0;" parent="WIyWlLk6GJQsqaUBKTNV-1" edge="1">
          <mxGeometry width="50" height="50" relative="1" as="geometry">
            <mxPoint x="1910" y="390" as="sourcePoint" />
            <mxPoint x="1910" y="1520" as="targetPoint" />
          </mxGeometry>
        </mxCell>
        <mxCell id="TQMWpj2GuU2XblvTJpzS-147" value="" style="endArrow=classic;html=1;rounded=0;" parent="WIyWlLk6GJQsqaUBKTNV-1" edge="1">
          <mxGeometry width="50" height="50" relative="1" as="geometry">
            <mxPoint x="1910" y="1520" as="sourcePoint" />
            <mxPoint x="1480" y="1520" as="targetPoint" />
          </mxGeometry>
        </mxCell>
        <mxCell id="TQMWpj2GuU2XblvTJpzS-81" value="Menghapus Data Berdasarkan Indeks Inputan Pengguna" style="rounded=0;whiteSpace=wrap;html=1;" parent="WIyWlLk6GJQsqaUBKTNV-1" vertex="1">
          <mxGeometry x="1187.5" y="1160" width="133" height="80" as="geometry" />
        </mxCell>
        <mxCell id="TQMWpj2GuU2XblvTJpzS-85" value="" style="edgeStyle=orthogonalEdgeStyle;rounded=0;orthogonalLoop=1;jettySize=auto;html=1;" parent="WIyWlLk6GJQsqaUBKTNV-1" target="TQMWpj2GuU2XblvTJpzS-81" edge="1">
          <mxGeometry relative="1" as="geometry">
            <mxPoint x="1254" y="1120" as="sourcePoint" />
          </mxGeometry>
        </mxCell>
        <mxCell id="CPGWKNepS4F0Ph8pHmQM-14" value="" style="edgeStyle=orthogonalEdgeStyle;rounded=0;orthogonalLoop=1;jettySize=auto;html=1;" edge="1" parent="WIyWlLk6GJQsqaUBKTNV-1" source="TQMWpj2GuU2XblvTJpzS-160" target="CPGWKNepS4F0Ph8pHmQM-13">
          <mxGeometry relative="1" as="geometry" />
        </mxCell>
        <mxCell id="TQMWpj2GuU2XblvTJpzS-160" value="Variabel Nama = &quot;Naufal&quot;, Password = &quot;034&quot;&amp;nbsp;" style="rounded=0;whiteSpace=wrap;html=1;" parent="WIyWlLk6GJQsqaUBKTNV-1" vertex="1">
          <mxGeometry x="894.5" y="-160" width="133" height="80" as="geometry" />
        </mxCell>
        <mxCell id="CPGWKNepS4F0Ph8pHmQM-4" value="" style="group" vertex="1" connectable="0" parent="WIyWlLk6GJQsqaUBKTNV-1">
          <mxGeometry x="1120" y="1040" width="224" height="80" as="geometry" />
        </mxCell>
        <mxCell id="CPGWKNepS4F0Ph8pHmQM-5" value="Pengguna menginput&amp;nbsp;&lt;div&gt;Nomor urut berapa&amp;nbsp;&lt;/div&gt;&lt;div&gt;Koleksi yang ingin&lt;/div&gt;&lt;div&gt;&amp;nbsp;dihapus&lt;/div&gt;" style="shape=parallelogram;perimeter=parallelogramPerimeter;whiteSpace=wrap;html=1;fixedSize=1;" vertex="1" parent="CPGWKNepS4F0Ph8pHmQM-4">
          <mxGeometry x="44" width="180" height="80" as="geometry" />
        </mxCell>
        <mxCell id="CPGWKNepS4F0Ph8pHmQM-6" value="" style="endArrow=classic;html=1;rounded=0;entryX=0.113;entryY=0.002;entryDx=0;entryDy=0;entryPerimeter=0;" edge="1" parent="CPGWKNepS4F0Ph8pHmQM-4" target="CPGWKNepS4F0Ph8pHmQM-5">
          <mxGeometry width="50" height="50" relative="1" as="geometry">
            <mxPoint as="sourcePoint" />
            <mxPoint x="160" y="-10" as="targetPoint" />
          </mxGeometry>
        </mxCell>
        <mxCell id="CPGWKNepS4F0Ph8pHmQM-7" value="" style="group" vertex="1" connectable="0" parent="WIyWlLk6GJQsqaUBKTNV-1">
          <mxGeometry x="1430" y="350" width="224" height="80" as="geometry" />
        </mxCell>
        <mxCell id="CPGWKNepS4F0Ph8pHmQM-8" value="Print &quot;Anda Telah&amp;nbsp;&lt;div&gt;Salah 3 kali&quot;&lt;/div&gt;" style="shape=parallelogram;perimeter=parallelogramPerimeter;whiteSpace=wrap;html=1;fixedSize=1;" vertex="1" parent="CPGWKNepS4F0Ph8pHmQM-7">
          <mxGeometry x="-10" width="180" height="80" as="geometry" />
        </mxCell>
        <mxCell id="CPGWKNepS4F0Ph8pHmQM-9" value="" style="endArrow=classic;html=1;rounded=0;exitX=0.9;exitY=1;exitDx=0;exitDy=0;exitPerimeter=0;" edge="1" parent="CPGWKNepS4F0Ph8pHmQM-7" source="CPGWKNepS4F0Ph8pHmQM-8">
          <mxGeometry width="50" height="50" relative="1" as="geometry">
            <mxPoint x="66" y="160" as="sourcePoint" />
            <mxPoint x="206" y="80" as="targetPoint" />
          </mxGeometry>
        </mxCell>
        <mxCell id="CPGWKNepS4F0Ph8pHmQM-10" value="" style="endArrow=classic;html=1;rounded=0;exitX=1;exitY=0.5;exitDx=0;exitDy=0;entryX=0;entryY=0.5;entryDx=0;entryDy=0;" edge="1" parent="WIyWlLk6GJQsqaUBKTNV-1" source="TQMWpj2GuU2XblvTJpzS-18" target="CPGWKNepS4F0Ph8pHmQM-8">
          <mxGeometry width="50" height="50" relative="1" as="geometry">
            <mxPoint x="1350" y="460" as="sourcePoint" />
            <mxPoint x="1400" y="410" as="targetPoint" />
          </mxGeometry>
        </mxCell>
        <mxCell id="CPGWKNepS4F0Ph8pHmQM-11" value="false" style="edgeLabel;html=1;align=center;verticalAlign=middle;resizable=0;points=[];" vertex="1" connectable="0" parent="CPGWKNepS4F0Ph8pHmQM-10">
          <mxGeometry x="-0.4881" y="-1" relative="1" as="geometry">
            <mxPoint as="offset" />
          </mxGeometry>
        </mxCell>
        <mxCell id="CPGWKNepS4F0Ph8pHmQM-12" value="" style="endArrow=none;html=1;rounded=0;exitX=1;exitY=0.5;exitDx=0;exitDy=0;" edge="1" parent="WIyWlLk6GJQsqaUBKTNV-1" source="CPGWKNepS4F0Ph8pHmQM-8">
          <mxGeometry width="50" height="50" relative="1" as="geometry">
            <mxPoint x="1350" y="460" as="sourcePoint" />
            <mxPoint x="1910" y="390" as="targetPoint" />
          </mxGeometry>
        </mxCell>
        <mxCell id="CPGWKNepS4F0Ph8pHmQM-15" value="" style="edgeStyle=orthogonalEdgeStyle;rounded=0;orthogonalLoop=1;jettySize=auto;html=1;" edge="1" parent="WIyWlLk6GJQsqaUBKTNV-1" source="CPGWKNepS4F0Ph8pHmQM-13" target="TQMWpj2GuU2XblvTJpzS-1">
          <mxGeometry relative="1" as="geometry" />
        </mxCell>
        <mxCell id="CPGWKNepS4F0Ph8pHmQM-13" value="Array Koleksi untuk menyimpan input Pengguna" style="rounded=0;whiteSpace=wrap;html=1;" vertex="1" parent="WIyWlLk6GJQsqaUBKTNV-1">
          <mxGeometry x="894.5" y="-40" width="133" height="80" as="geometry" />
        </mxCell>
      </root>
    </mxGraphModel>
  </diagram>
</mxfile>
